<svg width="242" height="43" viewBox="0 0 242 43" fill="none" xmlns="http://www.w3.org/2000/svg">
<path d="M140.66 10.975C140.66 10.2732 141.012 9.92256 141.715 9.9231H148.91C149.881 9.91356 150.846 10.0802 151.757 10.415C152.596 10.7235 153.36 11.2077 153.996 11.835C154.627 12.4728 155.123 13.2321 155.451 14.0667C155.812 14.9915 155.991 15.9768 155.978 16.9691C155.99 17.9665 155.811 18.9571 155.451 19.8878C155.123 20.7323 154.628 21.5024 153.996 22.1523C153.362 22.7895 152.598 23.2842 151.757 23.6034C150.849 23.9497 149.883 24.1227 148.91 24.1134H143.793V31.3848C143.793 32.0866 143.442 32.4375 142.739 32.4375H141.715C141.012 32.4375 140.66 32.0866 140.66 31.3848V10.975ZM148.399 21.3726C149.763 21.3726 150.834 20.979 151.613 20.192C152.392 19.4049 152.781 18.3311 152.78 16.9707C152.78 15.6108 152.391 14.5532 151.613 13.7978C150.836 13.0424 149.775 12.665 148.431 12.6656H143.793V21.3726H148.399Z" fill="#003357"/>
<path d="M156.264 24.37C156.264 23.0943 156.472 21.9355 156.888 20.8937C157.271 19.9032 157.846 18.9981 158.582 18.2308C159.306 17.4904 160.178 16.9092 161.14 16.5246C162.162 16.1153 163.253 15.9095 164.354 15.9188C165.462 15.9188 166.454 16.1101 167.328 16.4927C168.169 16.8523 168.917 17.3975 169.516 18.0873C170.12 18.7989 170.576 19.6225 170.859 20.5108C171.178 21.511 171.335 22.5556 171.323 23.605C171.325 23.7462 171.3 23.8864 171.248 24.0177C171.196 24.149 171.118 24.2687 171.019 24.37C170.919 24.4754 170.797 24.5583 170.662 24.6133C170.527 24.6683 170.382 24.6941 170.236 24.6889H159.43C159.456 25.4931 159.641 26.2842 159.974 27.0173C160.272 27.6676 160.696 28.2527 161.221 28.7391C161.726 29.2024 162.318 29.56 162.964 29.791C163.626 30.0271 164.324 30.1459 165.026 30.1419C165.921 30.1419 166.7 29.9984 167.361 29.7114C168.023 29.4245 168.534 29.1427 168.896 28.8661C169.536 28.5267 170.015 28.6437 170.335 29.217L170.622 29.6958C170.793 29.9724 170.852 30.2329 170.798 30.4772C170.745 30.7215 170.58 30.9287 170.305 31.0986C169.649 31.5626 168.934 31.9381 168.179 32.2153C167.679 32.3967 167.165 32.5406 166.643 32.6457C166.048 32.7655 165.442 32.8243 164.835 32.8212C163.556 32.8212 162.394 32.6026 161.348 32.1653C160.339 31.7529 159.421 31.1461 158.646 30.3796C157.883 29.6151 157.285 28.7034 156.888 27.7003C156.466 26.6407 156.254 25.5098 156.264 24.37ZM168.224 22.6482C168.182 21.2239 167.782 20.1501 167.025 19.427C166.664 19.0744 166.236 18.797 165.767 18.6108C165.298 18.4246 164.796 18.3333 164.291 18.3423C163.097 18.3423 162.068 18.7197 161.205 19.4745C160.341 20.2294 159.793 21.2873 159.56 22.6482H168.224Z" fill="#003357"/>
<path d="M173.181 17.3529C173.181 16.6511 173.533 16.3004 174.236 16.301H175.131C175.835 16.301 176.187 16.6516 176.187 17.3529V18.7885C176.187 19.0027 176.165 19.2164 176.123 19.4263C176.101 19.5203 176.09 19.6167 176.091 19.7133H176.155C176.351 19.295 176.592 18.8994 176.874 18.5335C177.232 18.0593 177.658 17.64 178.138 17.2889C178.688 16.8858 179.29 16.5587 179.928 16.3166C180.611 16.0509 181.4 15.9181 182.295 15.9181C184.213 15.9181 185.615 16.4335 186.5 17.4644C187.385 18.4952 187.828 20.0421 187.828 22.1048V31.3858C187.828 32.0876 187.476 32.4385 186.772 32.4385H185.781C185.077 32.4385 184.725 32.0876 184.725 31.3858V22.8067C184.728 22.2731 184.691 21.74 184.614 21.212C184.552 20.7632 184.406 20.3302 184.182 19.9363C183.961 19.5677 183.639 19.2692 183.255 19.0754C182.85 18.8634 182.327 18.757 181.688 18.7565C180.937 18.7481 180.195 18.906 179.513 19.2189C178.863 19.5189 178.281 19.9473 177.802 20.4782C177.309 21.0326 176.929 21.6772 176.683 22.3762C176.413 23.1282 176.278 23.9216 176.283 24.7202V31.3858C176.283 32.0876 175.931 32.4385 175.228 32.4385H174.236C173.533 32.4385 173.181 32.0876 173.181 31.3858V17.3529Z" fill="#003357"/>
<path d="M189.904 31.0673C189.626 30.8973 189.476 30.6847 189.456 30.4294C189.441 30.1466 189.52 29.8669 189.679 29.6325L189.999 29.1857C190.212 28.9091 190.431 28.7605 190.657 28.7397C190.882 28.7189 191.154 28.7932 191.472 28.9627C191.967 29.2691 192.479 29.5459 193.007 29.7916C193.665 30.1102 194.475 30.2698 195.437 30.2704C196.248 30.2704 196.909 30.0843 197.42 29.712C197.931 29.3398 198.187 28.8135 198.188 28.133C198.195 27.8859 198.142 27.6408 198.033 27.4186C197.924 27.1964 197.763 27.0038 197.564 26.8573C197.085 26.5027 196.564 26.2084 196.013 25.9808C195.393 25.7152 194.727 25.4599 194.014 25.2151C193.312 24.9766 192.641 24.6554 192.016 24.2583C191.41 23.8775 190.884 23.3849 190.464 22.8071C190.049 22.2332 189.842 21.489 189.841 20.5746C189.841 19.8094 189.996 19.1344 190.305 18.5495C190.606 17.9739 191.039 17.4769 191.567 17.0983C192.135 16.6993 192.768 16.4024 193.439 16.2211C194.173 16.0167 194.931 15.9149 195.694 15.9186C196.823 15.9186 197.755 16.0672 198.489 16.3646C199.068 16.5875 199.63 16.8542 200.168 17.1623C200.466 17.3115 200.641 17.508 200.695 17.7518C200.749 17.9956 200.69 18.2667 200.519 18.5651L200.232 19.0439C199.933 19.5752 199.464 19.6921 198.825 19.3948C198.397 19.1629 197.953 18.9605 197.497 18.7889C196.954 18.5768 196.299 18.4705 195.531 18.47C194.763 18.4694 194.12 18.6394 193.603 18.9799C193.08 19.3205 192.819 19.8307 192.82 20.5106C192.813 20.7595 192.865 21.0065 192.973 21.2311C193.08 21.4558 193.24 21.6517 193.439 21.8028C193.912 22.1654 194.435 22.4606 194.99 22.68C195.608 22.9353 196.274 23.1903 196.988 23.445C197.685 23.6911 198.354 24.0062 198.988 24.3854C199.599 24.7511 200.127 25.2397 200.539 25.8201C200.955 26.4055 201.163 27.1551 201.162 28.069C201.169 28.7209 201.028 29.3659 200.752 29.9564C200.475 30.547 200.069 31.0681 199.563 31.4813C199.019 31.9245 198.395 32.2601 197.725 32.4701C196.954 32.7125 196.149 32.8309 195.341 32.821C194.713 32.826 194.086 32.7672 193.47 32.6455C192.951 32.5422 192.443 32.3927 191.951 32.1987C191.538 32.0352 191.137 31.8435 190.751 31.6248C190.455 31.4603 190.172 31.2739 189.904 31.0673Z" fill="#003357"/>
<path d="M204.072 13.0804C203.368 13.0804 203.017 12.7295 203.017 12.0277V10.975C203.017 10.2732 203.368 9.92253 204.072 9.92308H205.16C205.863 9.92308 206.215 10.2737 206.215 10.975V12.0277C206.215 12.7295 205.863 13.0804 205.16 13.0804H204.072ZM203.049 17.3536C203.049 16.6518 203.401 16.3011 204.104 16.3017H205.096C205.799 16.3017 206.151 16.6523 206.151 17.3536V31.3865C206.151 32.0883 205.799 32.4392 205.096 32.4392H204.104C203.401 32.4392 203.049 32.0883 203.049 31.3865V17.3536Z" fill="#003357"/>
<path d="M208.038 24.3383C208.027 23.182 208.262 22.0365 208.726 20.9768C209.165 19.9731 209.795 19.0636 210.58 18.2983C211.371 17.5362 212.306 16.9396 213.331 16.5438C215.525 15.7153 217.948 15.7153 220.142 16.5438C221.171 16.9398 222.11 17.5356 222.907 18.2965C223.703 19.0575 224.339 19.9686 224.78 20.9768C225.233 22.0465 225.467 23.1961 225.467 24.3576C225.467 25.519 225.233 26.6686 224.78 27.7383C224.338 28.7451 223.702 29.6555 222.908 30.4176C222.109 31.1795 221.17 31.7805 220.142 32.1877C217.952 33.0383 215.521 33.0383 213.331 32.1877C212.308 31.7846 211.375 31.1841 210.585 30.4206C209.795 29.657 209.163 28.7455 208.727 27.7383C208.26 26.6662 208.025 25.5074 208.038 24.3383ZM211.172 24.3383C211.163 25.1417 211.315 25.9388 211.62 26.6823C211.898 27.3647 212.305 27.9874 212.819 28.5164C213.598 29.2957 214.591 29.826 215.674 30.0395C216.756 30.253 217.877 30.14 218.895 29.715C219.558 29.4339 220.161 29.0278 220.67 28.5188C221.191 27.9944 221.599 27.3691 221.869 26.6815C222.164 25.9353 222.31 25.1393 222.301 24.3375C222.309 23.5515 222.162 22.7716 221.869 22.0418C221.596 21.3619 221.188 20.7438 220.67 20.2242C220.161 19.7158 219.558 19.3099 218.895 19.0288C217.879 18.5965 216.756 18.4793 215.672 18.6925C214.588 18.9057 213.594 19.4394 212.819 20.2242C211.75 21.3266 211.159 22.8047 211.175 24.3383H211.172Z" fill="#003357"/>
<path d="M227.354 17.3529C227.354 16.6511 227.705 16.3004 228.409 16.301H229.304C230.008 16.301 230.36 16.6516 230.359 17.3529V18.7885C230.359 19.0026 230.338 19.2163 230.296 19.4263C230.273 19.5203 230.263 19.6167 230.264 19.7133H230.328C230.523 19.2948 230.765 18.8992 231.047 18.5335C231.405 18.0595 231.83 17.6402 232.31 17.2889C232.86 16.8858 233.463 16.5587 234.101 16.3166C234.783 16.0509 235.571 15.9181 236.467 15.9181C238.385 15.9181 239.787 16.4335 240.673 17.4644C241.559 18.4952 242.001 20.0421 242 22.1048V31.3858C242 32.0876 241.648 32.4385 240.944 32.4385H239.953C239.25 32.4385 238.898 32.0876 238.898 31.3858V22.8067C238.901 22.2731 238.863 21.74 238.786 21.212C238.725 20.7633 238.578 20.3304 238.354 19.9363C238.133 19.5673 237.811 19.2687 237.427 19.0754C237.021 18.8634 236.499 18.757 235.86 18.7565C235.11 18.7483 234.367 18.9062 233.685 19.2189C233.035 19.5189 232.453 19.9473 231.975 20.4782C231.481 21.0323 231.101 21.677 230.855 22.3762C230.585 23.1283 230.45 23.9216 230.455 24.7202V31.3858C230.455 32.0876 230.103 32.4385 229.4 32.4385H228.413C227.709 32.4385 227.358 32.0876 227.358 31.3858L227.354 17.3529Z" fill="#003357"/>
<path d="M21.0456 0.199219C9.42285 0.199219 0 9.59657 0 21.1879C0 32.7792 9.42285 42.1766 21.0456 42.1766C32.6684 42.1766 42.0913 32.78 42.0913 21.1879C42.0913 9.59575 32.6692 0.199219 21.0456 0.199219ZM27.5583 23.7893C24.6809 29.6498 18.6213 33.8254 11.6022 34.9994C11.1509 35.0748 10.984 34.4296 11.4148 34.2747C14.0948 33.3088 19.2789 30.6672 21.9228 26.499C24.0504 23.3892 25.3666 17.2345 12.2928 18.6102C11.8669 18.6553 11.682 17.9855 12.0749 17.819C16.2553 16.0514 19.4417 15.6956 22.6405 15.657C26.4468 15.6948 30.7603 17.519 27.5583 23.7893ZM27.869 14.1321C26.1903 14.1321 24.8273 12.6334 24.8273 10.7846C24.8273 8.93575 26.1878 7.43621 27.869 7.43621C29.5502 7.43621 30.9108 8.93493 30.9108 10.7846C30.9108 12.6342 29.5436 14.1321 27.869 14.1321Z" fill="#003357"/>
<path d="M53.0581 30.494C52.8604 30.329 52.7205 30.1056 52.6586 29.8561C52.6038 29.6222 52.6942 29.3459 52.9299 29.0272L53.4741 28.2615C53.8577 27.7728 54.3373 27.7091 54.9128 28.0704C55.104 28.2185 55.36 28.394 55.6806 28.5968C56.035 28.8172 56.4035 29.0141 56.7838 29.1863C57.2327 29.3893 57.698 29.5538 58.1748 29.6782C58.7175 29.8206 59.2768 29.8904 59.8379 29.8856C61.053 29.8856 62.0176 29.5932 62.7317 29.0084C63.4458 28.4235 63.8021 27.6422 63.8004 26.6643C63.8004 25.8352 63.5341 25.1547 63.0013 24.6229C62.4072 24.0489 61.7275 23.5702 60.9864 23.2037C60.1775 22.7894 59.3049 22.3863 58.3688 21.9944C57.4563 21.6146 56.5787 21.1559 55.7464 20.6235C54.9539 20.1191 54.2693 19.4631 53.7322 18.6936C53.1984 17.9284 52.9318 16.9609 52.9323 15.7912C52.9138 14.9234 53.0944 14.0628 53.4603 13.2752C53.8262 12.4876 54.3677 11.7937 55.0435 11.2467C55.737 10.6869 56.5283 10.2597 57.3774 9.98655C58.3061 9.684 59.2778 9.53338 60.2547 9.54054C60.8892 9.53752 61.5225 9.59629 62.1455 9.71599C62.6986 9.82126 63.2437 9.96509 63.7766 10.1464C64.2184 10.2952 64.6464 10.482 65.0558 10.7048C65.3581 10.8675 65.647 11.0539 65.9198 11.2623C66.4311 11.6247 66.5377 12.1032 66.2396 12.6979L65.7915 13.4948C65.6 13.835 65.3805 14.0105 65.1339 14.0211C64.8544 14.0226 64.5811 13.9391 64.3504 13.7817C63.8074 13.4681 63.2466 13.1862 62.6709 12.9373C61.9781 12.629 61.1522 12.4749 60.1931 12.4749C59.0202 12.4749 58.0501 12.7563 57.2829 13.3193C56.5156 13.8823 56.1319 14.6533 56.1319 15.6322C56.1319 16.44 56.3986 17.0989 56.9318 17.6089C57.5278 18.1626 58.2068 18.6201 58.9443 18.9649C59.7549 19.3585 60.6291 19.7411 61.5668 20.1128C62.4848 20.4747 63.3634 20.9288 64.1893 21.468C64.9831 21.9843 65.6677 22.6509 66.2042 23.43C66.7353 24.2066 67.0008 25.2006 67.0008 26.4118C67.0078 27.2695 66.8449 28.1201 66.5216 28.9149C66.2067 29.6859 65.7263 30.3789 65.1141 30.9449C64.4581 31.5422 63.6927 32.0076 62.8599 32.3157C61.9748 32.6557 60.9675 32.8259 59.8379 32.8265C59.069 32.8298 58.302 32.7487 57.5509 32.5846C56.889 32.4414 56.2416 32.2386 55.6165 31.9787C55.0909 31.7602 54.5821 31.5038 54.094 31.2113C53.7318 30.9973 53.3857 30.7576 53.0581 30.494Z" fill="#003357"/>
<path d="M68.8236 17.353C68.8236 16.6511 69.1754 16.3005 69.8791 16.3011H70.7744C71.4781 16.3011 71.83 16.6517 71.83 17.353V18.7885C71.8298 19.0028 71.8083 19.2164 71.7659 19.4264C71.7434 19.5204 71.7327 19.6168 71.7338 19.7134H71.7979C72.0107 19.212 72.2962 18.7446 72.6455 18.3261C73.025 17.8629 73.4678 17.455 73.9608 17.1144C74.4664 16.7605 75.0143 16.471 75.5919 16.2527C76.1791 16.0295 76.8025 15.9161 77.4309 15.9182C80.095 15.9182 81.7151 17.1406 82.2911 19.5855H82.3552C82.5875 19.0888 82.8889 18.6273 83.2505 18.2146C83.6352 17.7668 84.0759 17.3701 84.5617 17.034C85.0647 16.6883 85.6137 16.4145 86.1928 16.2207C86.8007 16.0172 87.4382 15.915 88.0795 15.9182C89.9341 15.9182 91.2881 16.4336 92.1415 17.4645C92.9948 18.4953 93.4212 20.0421 93.4206 22.1049V31.3858C93.4206 32.0876 93.0688 32.4386 92.3651 32.4386H91.3736C90.6699 32.4386 90.3181 32.0876 90.3181 31.3858V22.7772C90.3211 22.2436 90.2837 21.7105 90.2062 21.1826C90.1455 20.7359 90.0046 20.3037 89.7903 19.9068C89.5878 19.5459 89.289 19.2479 88.9271 19.046C88.5511 18.8339 88.0658 18.7279 87.4711 18.7279C86.764 18.7175 86.0674 18.8995 85.4562 19.2542C84.8552 19.6073 84.3369 20.0845 83.9361 20.6537C83.51 21.2599 83.1908 21.9343 82.9924 22.6477C82.7804 23.3839 82.6728 24.1461 82.6726 24.9121V31.3891C82.6726 32.0909 82.3314 32.4418 81.6491 32.4418H80.6247C79.9413 32.4418 79.6001 32.0909 79.6012 31.3891V22.7805C79.6025 22.2687 79.5703 21.7574 79.505 21.2498C79.453 20.8004 79.3231 20.3635 79.1211 19.9585C78.9308 19.5831 78.6367 19.2698 78.2735 19.0558C77.9003 18.8372 77.4038 18.7279 76.7839 18.7279C76.0624 18.717 75.3516 18.9033 74.7287 19.2665C74.1225 19.6267 73.5992 20.1103 73.193 20.6857C72.766 21.2919 72.4457 21.9662 72.246 22.6796C72.0351 23.4052 71.9275 24.1567 71.9262 24.9121V31.3891C71.9262 32.0909 71.5743 32.4418 70.8706 32.4418H69.8783C69.1746 32.4418 68.8228 32.0909 68.8228 31.3891L68.8236 17.353Z" fill="#003357"/>
<path d="M94.7261 28.0381C94.7261 27.2084 94.8861 26.4908 95.2062 25.8852C95.515 25.292 95.9519 24.7745 96.4854 24.37C97.0378 23.956 97.6468 23.623 98.294 23.3813C98.9725 23.1244 99.6738 22.9323 100.389 22.8074C101.092 22.6827 101.802 22.5975 102.515 22.5524C103.207 22.5098 103.831 22.4884 104.386 22.4884H105.217V22.0736C105.217 21.4177 105.126 20.8596 104.946 20.3994C104.788 19.9774 104.53 19.5998 104.194 19.2992C103.87 19.0207 103.488 18.8189 103.074 18.7088C102.626 18.5896 102.163 18.5308 101.699 18.5342C100.965 18.5215 100.234 18.6401 99.5411 18.8843C99.0274 19.0657 98.53 19.2897 98.0539 19.5541C97.4352 19.8526 96.9553 19.7252 96.6144 19.1721L96.3571 18.7285C96.0162 18.0907 96.1335 17.6121 96.709 17.2929C97.1989 17.0196 97.8865 16.722 98.7716 16.4001C99.6567 16.0782 100.718 15.9188 101.954 15.9221C103.978 15.9221 105.545 16.4588 106.655 17.5323C107.764 18.6058 108.318 20.174 108.318 22.2367V31.3865C108.318 32.0883 107.966 32.4392 107.262 32.4392H106.461C105.758 32.4392 105.406 32.0883 105.406 31.3865V30.0149C105.404 29.9079 105.415 29.8011 105.438 29.6967C105.459 29.6148 105.48 29.5262 105.501 29.4409H105.438C105.127 30.0665 104.717 30.6374 104.222 31.1315C103.739 31.5975 103.19 31.9898 102.592 32.2957C101.93 32.6466 101.12 32.8221 100.161 32.8221C99.4668 32.823 98.7769 32.7151 98.1164 32.5023C97.4801 32.3034 96.8883 31.9838 96.3736 31.5611C95.8745 31.1493 95.4662 30.639 95.1741 30.0624C94.8749 29.4787 94.7255 28.8039 94.7261 28.0381ZM97.8599 27.7832C97.8599 28.421 98.1106 29.0111 98.6121 29.5533C99.1136 30.0955 99.865 30.3663 100.866 30.3658C101.509 30.376 102.144 30.2165 102.705 29.9033C103.243 29.5997 103.71 29.1869 104.077 28.6916C104.452 28.1883 104.743 27.6283 104.941 27.033C105.139 26.4521 105.241 25.8429 105.244 25.2293V24.5275H104.413C103.837 24.5275 103.176 24.5548 102.43 24.6094C101.703 24.6591 100.984 24.7928 100.288 25.0079C99.6457 25.198 99.0554 25.5307 98.5612 25.9811C98.0937 26.4173 97.8599 27.018 97.8599 27.7832Z" fill="#003357"/>
<path d="M111.036 17.3537C111.036 16.6519 111.388 16.3012 112.092 16.3018H112.987C113.691 16.3018 114.043 16.6524 114.043 17.3537V19.2033C114.043 19.3738 114.037 19.5334 114.026 19.6821C114.018 19.8106 114.002 19.9384 113.979 20.065C113.958 20.1809 113.948 20.2982 113.947 20.4159H114.011C114.188 19.8687 114.43 19.3442 114.73 18.8532C115.032 18.3521 115.403 17.8961 115.833 17.4988C116.256 17.1088 116.736 16.7861 117.256 16.542C117.792 16.2947 118.377 16.1695 118.967 16.1755C119.649 16.1755 119.991 16.5264 119.991 17.2282V18.1211C119.991 18.8229 119.607 19.1738 118.84 19.1738C118.051 19.1738 117.363 19.3703 116.777 19.7633C116.186 20.1609 115.685 20.6769 115.306 21.2784C114.895 21.9322 114.598 22.65 114.427 23.4019C114.237 24.1802 114.14 24.9784 114.138 25.7795V31.3923C114.138 32.0941 113.787 32.445 113.083 32.445H112.092C111.388 32.445 111.036 32.0941 111.036 31.3923V17.3537Z" fill="#003357"/>
<path d="M123.699 18.9801H122.58C121.898 18.9801 121.556 18.6292 121.557 17.9274V17.5175C121.557 16.8157 121.908 16.4647 122.612 16.4647H123.763V12.9204C123.763 12.2186 124.114 11.8677 124.818 11.8677H125.745C126.449 11.8677 126.8 12.2186 126.8 12.9204V16.4606H129.615C130.318 16.4606 130.67 16.8116 130.67 17.5134V17.9233C130.67 18.6251 130.329 18.976 129.646 18.976H126.8V26.1564C126.8 26.9216 126.907 27.5382 127.12 28.0061C127.295 28.4221 127.563 28.7928 127.903 29.0899C128.192 29.3348 128.53 29.5144 128.895 29.6163C129.214 29.7066 129.54 29.7654 129.871 29.7917C130.297 29.8344 130.589 29.93 130.75 30.0787C130.91 30.2274 130.99 30.4826 130.99 30.8444V31.5184C130.99 32.2202 130.563 32.5708 129.71 32.5703C128.929 32.5748 128.153 32.4566 127.409 32.2202C126.704 31.9981 126.056 31.6282 125.506 31.1355C124.941 30.6191 124.493 29.9886 124.191 29.2859C123.862 28.5414 123.698 27.659 123.698 26.6385L123.699 18.9801Z" fill="#003357"/>
</svg>
